<?xml version="1.0" standalone="no"?><!DOCTYPE svg PUBLIC "-//W3C//DTD SVG 1.1//EN" "http://www.w3.org/Graphics/SVG/1.1/DTD/svg11.dtd"><svg t="1534297697922" class="icon" style="" viewBox="0 0 1024 1024" version="1.1" xmlns="http://www.w3.org/2000/svg" p-id="2501" xmlns:xlink="http://www.w3.org/1999/xlink" width="200" height="200"><defs><style type="text/css"></style></defs><path d="M841.322 87.089l-3.9 0L541.113 167.9l0-0.031-57.292 0L186.577 86.803l-3.898 0c-47.329 0-85.833 38.504-85.833 85.834l0 595.568c0 22.92 8.948 43.111 25.875 58.393 12.931 11.674 30.025 20.311 52.204 26.391 1.558 0.43 156.07 43.113 307.962 83.951 0.319 0.086 0.638 0.172 0.956 0.258l3.482 0 49.283 0 2.385 0c0.707-0.186 1.414-0.373 2.121-0.559 154.5-40.689 306.48-82.951 308.012-83.379l1.078-0.322c21.422-6.861 37.787-15.387 50.029-26.064 17.613-15.363 26.922-35.551 26.922-58.381L927.155 172.923C927.154 125.595 888.65 87.089 841.322 87.089zM190.375 796.848c-35.303-9.676-35.303-22.967-35.303-28.643L155.072 172.637c0-14.134 10.678-25.822 24.39-27.421l303.424 82.752 0 648.673C336.231 837.139 191.934 797.279 190.375 796.848zM868.928 768.492c0 5.154 0 17.191-35.969 28.826-9.916 2.756-147.693 41.006-291.846 79.1L541.113 228.254l303.424-82.751c13.713 1.599 24.391 13.287 24.391 27.421L868.928 768.492z" p-id="2502"></path></svg>