<?xml version="1.0" standalone="no"?><!DOCTYPE svg PUBLIC "-//W3C//DTD SVG 1.1//EN" "http://www.w3.org/Graphics/SVG/1.1/DTD/svg11.dtd"><svg t="1536211041534" class="icon" style="" viewBox="0 0 1024 1024" version="1.1" xmlns="http://www.w3.org/2000/svg" p-id="15286" xmlns:xlink="http://www.w3.org/1999/xlink" width="200" height="200"><defs><style type="text/css"></style></defs><path d="M512 704a192 192 0 1 0 0-384 192 192 0 0 0 0 384z m0 64a256 256 0 1 1 0-512 256 256 0 0 1 0 512zM32 480h128a32 32 0 1 1 0 64h-128a32 32 0 1 1 0-64z m832 0h128a32 32 0 1 1 0 64h-128a32 32 0 1 1 0-64z m-384 512v-128a32 32 0 1 1 64 0v128a32 32 0 1 1-64 0z m0-832v-128a32 32 0 1 1 64 0v128a32 32 0 1 1-64 0z m348.8 714.026667l-90.538667-90.496a32 32 0 1 1 45.269334-45.226667l90.496 90.453333a32 32 0 0 1-45.226667 45.269334zM240.469333 285.738667L149.973333 195.2a32 32 0 1 1 45.226667-45.226667l90.538667 90.496a32 32 0 1 1-45.269334 45.226667z m633.6-90.538667l-90.538666 90.538667a32 32 0 1 1-45.226667-45.269334l90.453333-90.496a32 32 0 0 1 45.226667 45.226667zM285.653333 783.530667l-90.453333 90.496a32 32 0 0 1-45.269333-45.226667l90.496-90.538667a32 32 0 1 1 45.226666 45.269334z" p-id="15287"></path></svg>