<?xml version="1.0" standalone="no"?><!DOCTYPE svg PUBLIC "-//W3C//DTD SVG 1.1//EN" "http://www.w3.org/Graphics/SVG/1.1/DTD/svg11.dtd"><svg t="1535702901952" class="icon" style="" viewBox="0 0 1024 1024" version="1.1" xmlns="http://www.w3.org/2000/svg" p-id="2133" xmlns:xlink="http://www.w3.org/1999/xlink" width="200" height="200"><defs><style type="text/css"></style></defs><path d="M512 128C264.576 128 64 328.576 64 576s200.576 448 448 448 448-200.576 448-448S759.424 128 512 128zM512 936c-198.824 0-360-161.178-360-360 0-198.824 161.176-360 360-360 198.822 0 360 161.176 360 360C872 774.822 710.822 936 512 936zM934.784 287.174C950.826 259.122 960 226.632 960 192c0-106.04-85.96-192-192-192-61.818 0-116.802 29.222-151.92 74.596C747.964 101.832 861.286 179.794 934.784 287.174zM407.92 74.596C372.804 29.222 317.818 0 256 0 149.96 0 64 85.96 64 192c0 34.632 9.174 67.122 25.216 95.174C162.716 179.794 276.038 101.832 407.92 74.596zM448 320l64 0 0 320-64 0L448 320zM512 576l192 0 0 64-192 0L512 576z" p-id="2134"></path></svg>