<?xml version="1.0" standalone="no"?><!DOCTYPE svg PUBLIC "-//W3C//DTD SVG 1.1//EN" "http://www.w3.org/Graphics/SVG/1.1/DTD/svg11.dtd"><svg t="1535093731628" class="icon" style="" viewBox="0 0 1024 1024" version="1.1" xmlns="http://www.w3.org/2000/svg" p-id="6069" xmlns:xlink="http://www.w3.org/1999/xlink" width="200" height="200"><defs><style type="text/css"></style></defs><path d="M894.816 514.976C880 334.416 728.32 192 544 192c-163.584 0-304.688 106.16-345.456 256H192C86.128 448 0 534.128 0 640s86.128 192 192 192h672c88.224 0 160-71.776 160-160 0-77.68-55.664-142.624-129.184-157.024zM864 768H192c-70.576 0-128-57.424-128-128s57.424-128 128-128h32a32 32 0 0 0 31.456-26.08C280.48 352.688 401.84 256 544 256c158.8 0 288 129.2 288 288a32 32 0 0 0 32 32c52.944 0 96 43.056 96 96s-43.056 96-96 96z" p-id="6070"></path><path d="M630.624 457.376a32 32 0 0 0-45.248 0L528 514.752l-57.376-57.376a32 32 0 1 0-45.248 45.248L482.752 560l-57.376 57.376a32 32 0 1 0 45.248 45.248L528 605.248l57.376 57.376c6.256 6.256 14.432 9.376 22.624 9.376s16.368-3.12 22.624-9.376a32 32 0 0 0 0-45.248L573.248 560l57.376-57.376a32 32 0 0 0 0-45.248z" p-id="6071"></path></svg>