<?xml version="1.0" standalone="no"?><!DOCTYPE svg PUBLIC "-//W3C//DTD SVG 1.1//EN" "http://www.w3.org/Graphics/SVG/1.1/DTD/svg11.dtd"><svg t="1534143471480" class="icon" style="" viewBox="0 0 1024 1024" version="1.1" xmlns="http://www.w3.org/2000/svg" p-id="2029" xmlns:xlink="http://www.w3.org/1999/xlink" width="200" height="200"><defs><style type="text/css"></style></defs><path d="M288.00448 575.98848l-63.99872 0 0 447.99104 63.99872 0c17.591968 0 32.0096-14.397152 32.0096-32.0096l0-383.99232c0-17.591968-14.397152-32.0096-32.0096-32.0096z" p-id="2030"></path><path d="M735.99552 575.98848c-17.591968 0-32.0096 14.397152-32.0096 32.0096l0 383.99232c0 17.591968 14.397152 32.0096 32.0096 32.0096l63.99872 0 0-447.99104-63.99872 0z" p-id="2031"></path><path d="M1023.97952 511.98976c0-282.761705-229.228055-511.98976-511.98976-511.98976s-511.98976 229.228055-511.98976 511.98976c0 61.418292 10.833703 120.297114 30.657947 174.834263-19.47609 33.197416-30.657947 71.862883-30.657947 113.149737 0 112.842543 83.454331 206.188516 191.99616 221.712046l0-443.403612c-31.907202 4.566949-61.664047 15.851203-87.755045 32.378232-5.386132-26.725865-8.253275-54.352833-8.253275-82.676106 0-229.740045 186.241395-416.00192 416.00192-416.00192s416.00192 186.241395 416.00192 416.00192c0 28.323274-2.826183 55.970721-8.212316 82.696586-26.090998-16.547509-55.847843-27.852243-87.775524-32.419192l0 443.424092c108.541829-15.52353 191.99616-108.869503 191.99616-221.712046 0-41.266375-11.181856-79.931841-30.637467-113.129257 19.824244-54.557629 30.637467-113.456931 30.637467-174.854743z" p-id="2032"></path></svg>