<?xml version="1.0" standalone="no"?><!DOCTYPE svg PUBLIC "-//W3C//DTD SVG 1.1//EN" "http://www.w3.org/Graphics/SVG/1.1/DTD/svg11.dtd"><svg t="1534592703423" class="icon" style="" viewBox="0 0 1024 1024" version="1.1" xmlns="http://www.w3.org/2000/svg" p-id="10501" xmlns:xlink="http://www.w3.org/1999/xlink" width="200" height="200"><defs><style type="text/css"></style></defs><path d="M840.704 256c-3.456 0-13.056 0-36.992 0-82.624 0-82.496-128-140.864-128C576.768 128 428.864 128 348.416 128 331.328 128 319.36 128 311.232 128 245.44 128 192 181.44 192 247.296L192 384l64 0L256 247.296C256 216.832 280.832 192 311.232 192l37.184 0 302.272 0c3.968 6.144 9.024 15.36 12.672 22.208C684.8 253.76 720.704 320 803.712 320l36.992 0C869.12 320 896 351.104 896 384l0 392.768C896 807.168 871.168 832 840.704 832L311.232 832C280.832 832 256 807.168 256 776.768L256 704 192 704l0 72.768C192 842.624 245.44 896 311.232 896l529.408 0C906.56 896 960 842.624 960 776.768L960 384C960 318.144 906.56 256 840.704 256z" p-id="10502"></path><path d="M497.344 693.824 630.4 563.968c0.128-0.128 0.192-0.32 0.32-0.512C633.536 560.64 635.904 553.92 637.504 550.208c1.344-3.456 1.856-0.64 2.112-4.096C639.616 545.344 640 544.704 640 544c0-0.512-0.256-0.896-0.256-1.344-0.192-3.84-0.896-5.76-2.24-9.344-1.344-3.264-3.52-6.016-5.76-8.64C631.232 524.032 630.976 523.136 630.4 522.56L497.344 389.632c-12.8-12.864-33.6-6.976-46.4 5.888-12.864 12.8-12.864 33.6 0 46.464l76.864 70.976L98.176 513.024c-18.752 0-33.984 12.8-33.92 30.912C64.192 562.048 79.424 573.632 98.24 573.632l429.632 0-76.864 79.552c-12.864 12.864-12.864 33.6 0 46.528 6.4 6.4 14.72 3.776 23.168 3.776S491.008 700.16 497.344 693.824z" p-id="10503"></path></svg>