<?xml version="1.0" standalone="no"?><!DOCTYPE svg PUBLIC "-//W3C//DTD SVG 1.1//EN" "http://www.w3.org/Graphics/SVG/1.1/DTD/svg11.dtd"><svg t="1534586268775" class="icon" style="" viewBox="0 0 1024 1024" version="1.1" xmlns="http://www.w3.org/2000/svg" p-id="4847" xmlns:xlink="http://www.w3.org/1999/xlink" width="200" height="200"><defs><style type="text/css"></style></defs><path d="M876.384 224.928 146.848 224.928c-45.28 0-82.112 37.696-82.112 84.032l0 439.904c0 46.336 37.344 84.064 83.264 84.064l199.296 0c33.888 0 64.096-20.48 77.056-52.32l57.888-144.896c5.152-12.672 17.152-20.832 30.56-20.832 13.376 0 25.344 8.192 30.4 20.672l58.016 145.28c12.672 31.2 43.232 52.128 75.968 52.128l199.232 0c46.496 0 84.352-37.728 84.352-84.064L960.768 308.96C960.704 262.656 922.88 224.928 876.384 224.928zM307.072 608.064c-61.76 0-112-50.24-112-112 0-61.76 50.24-112 112-112s112 50.24 112 112C419.072 557.824 368.832 608.064 307.072 608.064zM722.368 608.064c-61.76 0-112-50.24-112-112 0-61.76 50.24-112 112-112s112 50.24 112 112C834.368 557.824 784.128 608.064 722.368 608.064z" p-id="4848"></path></svg>