<?xml version="1.0" standalone="no"?><!DOCTYPE svg PUBLIC "-//W3C//DTD SVG 1.1//EN" "http://www.w3.org/Graphics/SVG/1.1/DTD/svg11.dtd"><svg t="1535687565056" class="icon" style="" viewBox="0 0 1024 1024" version="1.1" xmlns="http://www.w3.org/2000/svg" p-id="6378" xmlns:xlink="http://www.w3.org/1999/xlink" width="200" height="200"><defs><style type="text/css"></style></defs><path d="M894.944 480.96c-9.248-24.864-36.864-37.472-61.728-28.224l-321.472 119.776-318.208-121.248c-24.768-9.504-52.512 3.008-61.952 27.776-9.44 24.768 3.008 52.512 27.776 61.952l334.08 127.232c1.536 0.608 3.104 0.448 4.64 0.832 0.864 0.288 1.824 0.288 2.72 0.512 3.232 0.672 6.464 1.824 9.696 1.824 0.352 0 0.672-0.16 1.056-0.16 0.352 0 0.672 0.16 1.024 0.16 3.456 0 6.944-1.088 10.432-1.888 0.576-0.192 1.216-0.16 1.792-0.352 1.504-0.416 3.04-0.256 4.512-0.8l337.376-125.632C891.552 533.44 904.192 505.824 894.944 480.96z" p-id="6379"></path></svg>