<?xml version="1.0" standalone="no"?><!DOCTYPE svg PUBLIC "-//W3C//DTD SVG 1.1//EN" "http://www.w3.org/Graphics/SVG/1.1/DTD/svg11.dtd"><svg t="1535687707334" class="icon" style="" viewBox="0 0 1024 1024" version="1.1" xmlns="http://www.w3.org/2000/svg" p-id="11818" xmlns:xlink="http://www.w3.org/1999/xlink" width="200" height="200"><defs><style type="text/css"></style></defs><path d="M64 752l566.7 0c12.372-28.224 40.562-48 73.3-48s60.93 19.776 73.3 48L960 752l0 64-182.7 0c-12.372 28.224-40.562 48-73.3 48s-60.93-19.776-73.3-48L64 816" p-id="11819"></path><path d="M64 480l182.7 0c12.372-28.224 40.562-48 73.3-48s60.93 19.776 73.3 48L960 480l0 64L393.3 544c-12.372 28.224-40.562 48-73.3 48s-60.93-19.776-73.3-48L64 544" p-id="11820"></path><path d="M64 208l566.7 0c12.372-28.224 40.562-48 73.3-48s60.93 19.776 73.3 48L960 208l0 64-182.7 0c-12.372 28.224-40.562 48-73.3 48s-60.93-19.776-73.3-48L64 272" p-id="11821"></path></svg>