<?xml version="1.0" standalone="no"?><!DOCTYPE svg PUBLIC "-//W3C//DTD SVG 1.1//EN" "http://www.w3.org/Graphics/SVG/1.1/DTD/svg11.dtd"><svg t="1534592897626" class="icon" style="" viewBox="0 0 1024 1024" version="1.1" xmlns="http://www.w3.org/2000/svg" p-id="8948" xmlns:xlink="http://www.w3.org/1999/xlink" width="200" height="200"><defs><style type="text/css"></style></defs><path d="M921.6 454.656 223.232 454.656c-83.968 0-151.552-75.776-151.552-167.936s67.584-167.936 151.552-167.936L921.6 118.784c16.384 0 30.72 14.336 30.72 30.72l0 6.144c0 12.288-8.192 24.576-20.48 28.672-40.96 14.336-69.632 53.248-69.632 100.352 0 45.056 28.672 88.064 69.632 100.352 12.288 4.096 20.48 16.384 20.48 28.672l0 6.144C952.32 442.368 937.984 454.656 921.6 454.656zM223.232 182.272c-49.152 0-90.112 47.104-90.112 106.496s40.96 106.496 90.112 106.496l612.352 0c-22.528-28.672-34.816-65.536-34.816-106.496 0-38.912 12.288-75.776 34.816-106.496L223.232 182.272z" p-id="8949"></path><path d="M800.768 903.168 102.4 903.168c-16.384 0-30.72-14.336-30.72-30.72l0-6.144c0-14.336 8.192-24.576 20.48-28.672 40.96-14.336 69.632-55.296 69.632-100.352 0-47.104-28.672-88.064-69.632-100.352-12.288-4.096-20.48-16.384-20.48-28.672l0-6.144c0-16.384 14.336-30.72 30.72-30.72l698.368 0c83.968 0 151.552 75.776 151.552 167.936S884.736 903.168 800.768 903.168zM188.416 841.728l612.352 0c49.152 0 90.112-47.104 90.112-106.496s-40.96-106.496-90.112-106.496L188.416 628.736c22.528 28.672 34.816 65.536 34.816 106.496C223.232 774.144 210.944 811.008 188.416 841.728z" p-id="8950"></path></svg>