<?xml version="1.0" standalone="no"?><!DOCTYPE svg PUBLIC "-//W3C//DTD SVG 1.1//EN" "http://www.w3.org/Graphics/SVG/1.1/DTD/svg11.dtd"><svg t="1535686974011" class="icon" style="" viewBox="0 0 1024 1024" version="1.1" xmlns="http://www.w3.org/2000/svg" p-id="1887" xmlns:xlink="http://www.w3.org/1999/xlink" width="200" height="200"><defs><style type="text/css"></style></defs><path d="M438.278975 874.890984H190.053544v-48.131207h200.094224v-77.438697l-92.538603-65.993016a31.873941 31.873941 0 0 1-13.325493-25.54684c-0.105401-10.129708 4.676509-19.788695 12.785187-25.828248l93.078909-69.424163V457.828216l74.594928-5.922896-160.952762-298.049186 42.350551-22.890337 196.063421 363.101785-103.924931 8.225335v68.413136c0 9.988492-4.770653 19.506263-12.761652 25.476231l-81.716116 60.963467 81.151251 57.861826c8.366551 5.993504 13.325493 15.652492 13.325494 25.87532v134.008087z" p-id="1888"></path><path d="M217.546711 282.381345m-43.98784 0a43.98784 43.98784 0 1 0 87.975681 0 43.98784 43.98784 0 1 0-87.975681 0Z" p-id="1889"></path><path d="M554.742477 731.153302c-10.540054 0-20.211321-6.979972-23.172769-17.626449-3.560082-12.808724 3.936659-26.063609 16.733103-29.635971 12.150738-3.360538 20.634969-14.523785 20.634969-27.14422 0-12.502755-8.014534-23.337521-19.941168-26.956955-12.725836-3.877307-19.894096-17.320481-16.040324-30.035061 3.877307-12.738116 17.379832-19.859303 30.023803-16.028045 32.349779 9.847276 54.088896 39.177278 54.088896 73.020061 0 34.147728-22.973224 64.371076-55.863308 73.53683-2.162246 0.588401-4.336772 0.86981-6.463202 0.86981z" p-id="1890"></path><path d="M625.635083 820.530912c-8.66024 0-17.015535-4.676509-21.327747-12.879332-6.180769-11.750625-1.656733-26.297946 10.106172-32.479739 44.300972-23.290449 71.821769-68.813249 71.821768-118.801756 0-49.189306-26.886347-94.360088-70.152756-117.884874-11.680017-6.345522-16.004509-20.963451-9.647731-32.643468 6.345522-11.680017 20.939915-15.980973 32.632212-9.658987 58.777685 31.961946 95.299483 93.349061 95.299483 160.188352 0 67.919902-37.379329 129.776715-97.555874 161.386644a23.945365 23.945365 0 0 1-11.175527 2.77316z" p-id="1891"></path><path d="M697.727005 893.034203c-8.66024 0-17.015535-4.676509-21.327748-12.879332-6.180769-11.750625-1.656733-26.298969 10.106172-32.479739 71.433936-37.556361 115.804493-110.975511 115.804493-191.586456 0-79.342046-43.349297-152.173818-113.114221-190.105732-11.680017-6.369058-16.004509-20.963451-9.647731-32.643468 6.345522-11.703553 20.963451-15.980973 32.632212-9.658987 85.287455 46.369074 138.260947 135.417179 138.260947 232.40921 0 98.5669-54.230112 188.296527-141.53962 234.171344a23.939225 23.939225 0 0 1-11.174504 2.77316z" p-id="1892"></path></svg>